# Ollin example model: a low-poly hexagonal crystal (original geometry).
# Replace with your own model.usdz / .glb / .gltf / .obj to load it instead.
o Crystal
v 0.85000 0.55000 0.00000
v 0.42500 0.55000 0.73612
v -0.42500 0.55000 0.73612
v -0.85000 0.55000 0.00000
v -0.42500 0.55000 -0.73612
v 0.42500 0.55000 -0.73612
v 0.85000 -0.55000 0.00000
v 0.42500 -0.55000 0.73612
v -0.42500 -0.55000 0.73612
v -0.85000 -0.55000 0.00000
v -0.42500 -0.55000 -0.73612
v 0.42500 -0.55000 -0.73612
v 0.00000 1.35000 0.00000
v 0.00000 -1.35000 0.00000
vn 0.63729 0.67712 0.36794
vn 0.86603 0.00000 0.50000
vn 0.63729 -0.67712 0.36794
vn -0.00000 0.67712 0.73588
vn -0.00000 0.00000 1.00000
vn -0.00000 -0.67712 0.73588
vn -0.63729 0.67712 0.36794
vn -0.86603 -0.00000 0.50000
vn -0.63729 -0.67712 0.36794
vn -0.63729 0.67712 -0.36794
vn -0.86603 -0.00000 -0.50000
vn -0.63729 -0.67712 -0.36794
vn -0.00000 0.67712 -0.73588
vn -0.00000 -0.00000 -1.00000
vn -0.00000 -0.67712 -0.73588
vn 0.63729 0.67712 -0.36794
vn 0.86603 -0.00000 -0.50000
vn 0.63729 -0.67712 -0.36794
f 2//1 1//1 13//1
f 2//2 8//2 7//2 1//2
f 7//3 8//3 14//3
f 3//4 2//4 13//4
f 3//5 9//5 8//5 2//5
f 8//6 9//6 14//6
f 4//7 3//7 13//7
f 4//8 10//8 9//8 3//8
f 9//9 10//9 14//9
f 5//10 4//10 13//10
f 5//11 11//11 10//11 4//11
f 10//12 11//12 14//12
f 6//13 5//13 13//13
f 6//14 12//14 11//14 5//14
f 11//15 12//15 14//15
f 1//16 6//16 13//16
f 1//17 7//17 12//17 6//17
f 12//18 7//18 14//18
