#usda 1.0
(
    defaultPrim = "Pond"
    metersPerUnit = 1
    upAxis = "Y"
    startTimeCode = 0
    endTimeCode = 192
    timeCodesPerSecond = 24
)

def Xform "Pond"
{
    def Mesh "water" (
        prepend apiSchemas = ["MaterialBindingAPI"]
    )
    {
        double3 xformOp:translate = (0.0, 0.0, 0.0)
        uniform token[] xformOpOrder = ["xformOp:translate"]
        uniform token subdivisionScheme = "none"
        point3f[] points = [(2.6, 0.0, 0.0), (2.6, 0.05, 0.0), (2.57776, 0.0, 0.33937), (2.57776, 0.05, 0.33937), (2.51141, 0.0, 0.67293), (2.51141, 0.05, 0.67293), (2.40209, 0.0, 0.99498), (2.40209, 0.05, 0.99498), (2.25167, 0.0, 1.3), (2.25167, 0.05, 1.3), (2.06272, 0.0, 1.58278), (2.06272, 0.05, 1.58278), (1.83848, 0.0, 1.83848), (1.83848, 0.05, 1.83848), (1.58278, 0.0, 2.06272), (1.58278, 0.05, 2.06272), (1.3, 0.0, 2.25167), (1.3, 0.05, 2.25167), (0.99498, 0.0, 2.40209), (0.99498, 0.05, 2.40209), (0.67293, 0.0, 2.51141), (0.67293, 0.05, 2.51141), (0.33937, 0.0, 2.57776), (0.33937, 0.05, 2.57776), (0.0, 0.0, 2.6), (0.0, 0.05, 2.6), (-0.33937, 0.0, 2.57776), (-0.33937, 0.05, 2.57776), (-0.67293, 0.0, 2.51141), (-0.67293, 0.05, 2.51141), (-0.99498, 0.0, 2.40209), (-0.99498, 0.05, 2.40209), (-1.3, 0.0, 2.25167), (-1.3, 0.05, 2.25167), (-1.58278, 0.0, 2.06272), (-1.58278, 0.05, 2.06272), (-1.83848, 0.0, 1.83848), (-1.83848, 0.05, 1.83848), (-2.06272, 0.0, 1.58278), (-2.06272, 0.05, 1.58278), (-2.25167, 0.0, 1.3), (-2.25167, 0.05, 1.3), (-2.40209, 0.0, 0.99498), (-2.40209, 0.05, 0.99498), (-2.51141, 0.0, 0.67293), (-2.51141, 0.05, 0.67293), (-2.57776, 0.0, 0.33937), (-2.57776, 0.05, 0.33937), (-2.6, 0.0, 0.0), (-2.6, 0.05, 0.0), (-2.57776, 0.0, -0.33937), (-2.57776, 0.05, -0.33937), (-2.51141, 0.0, -0.67293), (-2.51141, 0.05, -0.67293), (-2.40209, 0.0, -0.99498), (-2.40209, 0.05, -0.99498), (-2.25167, 0.0, -1.3), (-2.25167, 0.05, -1.3), (-2.06272, 0.0, -1.58278), (-2.06272, 0.05, -1.58278), (-1.83848, 0.0, -1.83848), (-1.83848, 0.05, -1.83848), (-1.58278, 0.0, -2.06272), (-1.58278, 0.05, -2.06272), (-1.3, 0.0, -2.25167), (-1.3, 0.05, -2.25167), (-0.99498, 0.0, -2.40209), (-0.99498, 0.05, -2.40209), (-0.67293, 0.0, -2.51141), (-0.67293, 0.05, -2.51141), (-0.33937, 0.0, -2.57776), (-0.33937, 0.05, -2.57776), (-0.0, 0.0, -2.6), (-0.0, 0.05, -2.6), (0.33937, 0.0, -2.57776), (0.33937, 0.05, -2.57776), (0.67293, 0.0, -2.51141), (0.67293, 0.05, -2.51141), (0.99498, 0.0, -2.40209), (0.99498, 0.05, -2.40209), (1.3, 0.0, -2.25167), (1.3, 0.05, -2.25167), (1.58278, 0.0, -2.06272), (1.58278, 0.05, -2.06272), (1.83848, 0.0, -1.83848), (1.83848, 0.05, -1.83848), (2.06272, 0.0, -1.58278), (2.06272, 0.05, -1.58278), (2.25167, 0.0, -1.3), (2.25167, 0.05, -1.3), (2.40209, 0.0, -0.99498), (2.40209, 0.05, -0.99498), (2.51141, 0.0, -0.67293), (2.51141, 0.05, -0.67293), (2.57776, 0.0, -0.33937), (2.57776, 0.05, -0.33937), (0.0, 0.05, 0.0)]
        int[] faceVertexCounts = [4, 4, 4, 4, 4, 4, 4, 4, 4, 4, 4, 4, 4, 4, 4, 4, 4, 4, 4, 4, 4, 4, 4, 4, 4, 4, 4, 4, 4, 4, 4, 4, 4, 4, 4, 4, 4, 4, 4, 4, 4, 4, 4, 4, 4, 4, 4, 4, 3, 3, 3, 3, 3, 3, 3, 3, 3, 3, 3, 3, 3, 3, 3, 3, 3, 3, 3, 3, 3, 3, 3, 3, 3, 3, 3, 3, 3, 3, 3, 3, 3, 3, 3, 3, 3, 3, 3, 3, 3, 3, 3, 3, 3, 3, 3, 3]
        int[] faceVertexIndices = [0, 1, 3, 2, 2, 3, 5, 4, 4, 5, 7, 6, 6, 7, 9, 8, 8, 9, 11, 10, 10, 11, 13, 12, 12, 13, 15, 14, 14, 15, 17, 16, 16, 17, 19, 18, 18, 19, 21, 20, 20, 21, 23, 22, 22, 23, 25, 24, 24, 25, 27, 26, 26, 27, 29, 28, 28, 29, 31, 30, 30, 31, 33, 32, 32, 33, 35, 34, 34, 35, 37, 36, 36, 37, 39, 38, 38, 39, 41, 40, 40, 41, 43, 42, 42, 43, 45, 44, 44, 45, 47, 46, 46, 47, 49, 48, 48, 49, 51, 50, 50, 51, 53, 52, 52, 53, 55, 54, 54, 55, 57, 56, 56, 57, 59, 58, 58, 59, 61, 60, 60, 61, 63, 62, 62, 63, 65, 64, 64, 65, 67, 66, 66, 67, 69, 68, 68, 69, 71, 70, 70, 71, 73, 72, 72, 73, 75, 74, 74, 75, 77, 76, 76, 77, 79, 78, 78, 79, 81, 80, 80, 81, 83, 82, 82, 83, 85, 84, 84, 85, 87, 86, 86, 87, 89, 88, 88, 89, 91, 90, 90, 91, 93, 92, 92, 93, 95, 94, 94, 95, 1, 0, 96, 3, 1, 96, 5, 3, 96, 7, 5, 96, 9, 7, 96, 11, 9, 96, 13, 11, 96, 15, 13, 96, 17, 15, 96, 19, 17, 96, 21, 19, 96, 23, 21, 96, 25, 23, 96, 27, 25, 96, 29, 27, 96, 31, 29, 96, 33, 31, 96, 35, 33, 96, 37, 35, 96, 39, 37, 96, 41, 39, 96, 43, 41, 96, 45, 43, 96, 47, 45, 96, 49, 47, 96, 51, 49, 96, 53, 51, 96, 55, 53, 96, 57, 55, 96, 59, 57, 96, 61, 59, 96, 63, 61, 96, 65, 63, 96, 67, 65, 96, 69, 67, 96, 71, 69, 96, 73, 71, 96, 75, 73, 96, 77, 75, 96, 79, 77, 96, 81, 79, 96, 83, 81, 96, 85, 83, 96, 87, 85, 96, 89, 87, 96, 91, 89, 96, 93, 91, 96, 95, 93, 96, 1, 95]
        rel material:binding = </Pond/Materials/water>
    }

    def Mesh "lilyPad" (
        prepend apiSchemas = ["MaterialBindingAPI"]
    )
    {
        double3 xformOp:translate = (0.72, 0.052, -0.16)
        uniform token[] xformOpOrder = ["xformOp:translate"]
        uniform token subdivisionScheme = "none"
        point3f[] points = [(0.42, 0.0, 0.0), (0.42, 0.015, 0.0), (0.40569, 0.0, 0.1087), (0.40569, 0.015, 0.1087), (0.36373, 0.0, 0.21), (0.36373, 0.015, 0.21), (0.29698, 0.0, 0.29698), (0.29698, 0.015, 0.29698), (0.21, 0.0, 0.36373), (0.21, 0.015, 0.36373), (0.1087, 0.0, 0.40569), (0.1087, 0.015, 0.40569), (0.0, 0.0, 0.42), (0.0, 0.015, 0.42), (-0.1087, 0.0, 0.40569), (-0.1087, 0.015, 0.40569), (-0.21, 0.0, 0.36373), (-0.21, 0.015, 0.36373), (-0.29698, 0.0, 0.29698), (-0.29698, 0.015, 0.29698), (-0.36373, 0.0, 0.21), (-0.36373, 0.015, 0.21), (-0.40569, 0.0, 0.1087), (-0.40569, 0.015, 0.1087), (-0.42, 0.0, 0.0), (-0.42, 0.015, 0.0), (-0.40569, 0.0, -0.1087), (-0.40569, 0.015, -0.1087), (-0.36373, 0.0, -0.21), (-0.36373, 0.015, -0.21), (-0.29698, 0.0, -0.29698), (-0.29698, 0.015, -0.29698), (-0.21, 0.0, -0.36373), (-0.21, 0.015, -0.36373), (-0.1087, 0.0, -0.40569), (-0.1087, 0.015, -0.40569), (-0.0, 0.0, -0.42), (-0.0, 0.015, -0.42), (0.1087, 0.0, -0.40569), (0.1087, 0.015, -0.40569), (0.21, 0.0, -0.36373), (0.21, 0.015, -0.36373), (0.29698, 0.0, -0.29698), (0.29698, 0.015, -0.29698), (0.36373, 0.0, -0.21), (0.36373, 0.015, -0.21), (0.40569, 0.0, -0.1087), (0.40569, 0.015, -0.1087), (0.0, 0.015, 0.0)]
        int[] faceVertexCounts = [4, 4, 4, 4, 4, 4, 4, 4, 4, 4, 4, 4, 4, 4, 4, 4, 4, 4, 4, 4, 4, 4, 4, 4, 3, 3, 3, 3, 3, 3, 3, 3, 3, 3, 3, 3, 3, 3, 3, 3, 3, 3, 3, 3, 3, 3, 3, 3]
        int[] faceVertexIndices = [0, 1, 3, 2, 2, 3, 5, 4, 4, 5, 7, 6, 6, 7, 9, 8, 8, 9, 11, 10, 10, 11, 13, 12, 12, 13, 15, 14, 14, 15, 17, 16, 16, 17, 19, 18, 18, 19, 21, 20, 20, 21, 23, 22, 22, 23, 25, 24, 24, 25, 27, 26, 26, 27, 29, 28, 28, 29, 31, 30, 30, 31, 33, 32, 32, 33, 35, 34, 34, 35, 37, 36, 36, 37, 39, 38, 38, 39, 41, 40, 40, 41, 43, 42, 42, 43, 45, 44, 44, 45, 47, 46, 46, 47, 1, 0, 48, 3, 1, 48, 5, 3, 48, 7, 5, 48, 9, 7, 48, 11, 9, 48, 13, 11, 48, 15, 13, 48, 17, 15, 48, 19, 17, 48, 21, 19, 48, 23, 21, 48, 25, 23, 48, 27, 25, 48, 29, 27, 48, 31, 29, 48, 33, 31, 48, 35, 33, 48, 37, 35, 48, 39, 37, 48, 41, 39, 48, 43, 41, 48, 45, 43, 48, 47, 45, 48, 1, 47]
        rel material:binding = </Pond/Materials/pad>
    }

    def Mesh "lotusHeart" (
        prepend apiSchemas = ["MaterialBindingAPI"]
    )
    {
        double3 xformOp:translate = (0.78, 0.06, -0.24)
        uniform token[] xformOpOrder = ["xformOp:translate"]
        uniform token subdivisionScheme = "none"
        point3f[] points = [(0.09, 0.0, 0.0), (0.09, 0.09, 0.0), (0.07794, 0.0, 0.045), (0.07794, 0.09, 0.045), (0.045, 0.0, 0.07794), (0.045, 0.09, 0.07794), (0.0, 0.0, 0.09), (0.0, 0.09, 0.09), (-0.045, 0.0, 0.07794), (-0.045, 0.09, 0.07794), (-0.07794, 0.0, 0.045), (-0.07794, 0.09, 0.045), (-0.09, 0.0, 0.0), (-0.09, 0.09, 0.0), (-0.07794, 0.0, -0.045), (-0.07794, 0.09, -0.045), (-0.045, 0.0, -0.07794), (-0.045, 0.09, -0.07794), (-0.0, 0.0, -0.09), (-0.0, 0.09, -0.09), (0.045, 0.0, -0.07794), (0.045, 0.09, -0.07794), (0.07794, 0.0, -0.045), (0.07794, 0.09, -0.045), (0.0, 0.09, 0.0)]
        int[] faceVertexCounts = [4, 4, 4, 4, 4, 4, 4, 4, 4, 4, 4, 4, 3, 3, 3, 3, 3, 3, 3, 3, 3, 3, 3, 3]
        int[] faceVertexIndices = [0, 1, 3, 2, 2, 3, 5, 4, 4, 5, 7, 6, 6, 7, 9, 8, 8, 9, 11, 10, 10, 11, 13, 12, 12, 13, 15, 14, 14, 15, 17, 16, 16, 17, 19, 18, 18, 19, 21, 20, 20, 21, 23, 22, 22, 23, 1, 0, 24, 3, 1, 24, 5, 3, 24, 7, 5, 24, 9, 7, 24, 11, 9, 24, 13, 11, 24, 15, 13, 24, 17, 15, 24, 19, 17, 24, 21, 19, 24, 23, 21, 24, 1, 23]
        rel material:binding = </Pond/Materials/gold>
    }

    def SkelRoot "Serpent" (
        prepend apiSchemas = ["SkelBindingAPI"]
    )
    {
        double3 xformOp:translate = (-0.72, 0.02, 0.3)
        uniform token[] xformOpOrder = ["xformOp:translate"]

        def Skeleton "SerpentSkel" (
            prepend apiSchemas = ["SkelBindingAPI"]
        )
        {
            uniform token[] joints = ["Spine", "Spine/S1", "Spine/S1/S2", "Spine/S1/S2/S3", "Spine/S1/S2/S3/Head"]
            uniform matrix4d[] bindTransforms = [((1, 0, 0, 0), (0, 1, 0, 0), (0, 0, 1, 0), (-0.72, 0.02, 0.3, 1)), ((1, 0, 0, 0), (0, 1, 0, 0), (0, 0, 1, 0), (-0.72, 0.57, 0.3, 1)), ((1, 0, 0, 0), (0, 1, 0, 0), (0, 0, 1, 0), (-0.72, 1.12, 0.3, 1)), ((1, 0, 0, 0), (0, 1, 0, 0), (0, 0, 1, 0), (-0.72, 1.67, 0.3, 1)), ((1, 0, 0, 0), (0, 1, 0, 0), (0, 0, 1, 0), (-0.72, 2.22, 0.3, 1))]
            uniform matrix4d[] restTransforms = [((1, 0, 0, 0), (0, 1, 0, 0), (0, 0, 1, 0), (0.0, 0.0, 0.0, 1)), ((1, 0, 0, 0), (0, 1, 0, 0), (0, 0, 1, 0), (0.0, 0.55, 0.0, 1)), ((1, 0, 0, 0), (0, 1, 0, 0), (0, 0, 1, 0), (0.0, 0.55, 0.0, 1)), ((1, 0, 0, 0), (0, 1, 0, 0), (0, 0, 1, 0), (0.0, 0.55, 0.0, 1)), ((1, 0, 0, 0), (0, 1, 0, 0), (0, 0, 1, 0), (0.0, 0.55, 0.0, 1))]
            rel skel:animationSource = </Pond/Serpent/SerpentSkel/SerpentAnim>

            def SkelAnimation "SerpentAnim"
            {
                uniform token[] joints = ["Spine", "Spine/S1", "Spine/S1/S2", "Spine/S1/S2/S3", "Spine/S1/S2/S3/Head"]
                float3[] translations.timeSamples = {
                    0: [(0, 0.0, 0), (0, 0.55, 0), (0, 0.55, 0), (0, 0.55, 0), (0, 0.55, 0)],
                    192: [(0, 0.0, 0), (0, 0.55, 0), (0, 0.55, 0), (0, 0.55, 0), (0, 0.55, 0)],
                }
                quatf[] rotations.timeSamples = {
                    0: [(0.99942, 0.034, 0.0, 0.0), (0.99703, 0.01693, -0.00128, -0.07511), (0.99562, -0.00595, 0.00056, -0.09334), (0.9988, -0.02682, 0.0011, -0.041), (0.99836, -0.0383, -0.00163, 0.04243)],
                    8: [(0.99904, 0.03791, 0.00083, 0.0218), (0.99905, 0.02555, -0.0009, -0.03527), (0.99577, 0.00425, -0.00039, -0.09173), (0.99672, -0.01846, 0.00146, -0.07883), (0.99937, -0.03483, 0.00022, -0.00625)],
                    16: [(0.99852, 0.03923, 0.00148, 0.03775), (0.99938, 0.0324, 0.00046, 0.01407), (0.99775, 0.0142, -0.00093, -0.06558), (0.99539, -0.00888, 0.00085, -0.09552), (0.99816, -0.02891, 0.00154, -0.05326)],
                    24: [(0.99833, 0.03789, 0.00165, 0.04359), (0.99754, 0.03697, 0.00221, 0.05959), (0.99949, 0.02321, -0.00051, -0.0218), (0.99624, 0.00127, -0.00011, -0.08668), (0.99608, -0.02103, 0.00181, -0.08596)],
                    32: [(0.99871, 0.03398, 0.00128, 0.03776), (0.99525, 0.03899, 0.00349, 0.08909), (0.99914, 0.03061, 0.00085, 0.02784), (0.99844, 0.01138, -0.00062, -0.05461), (0.99535, -0.01176, 0.00113, -0.09564)],
                    40: [(0.99938, 0.02776, 0.00061, 0.02181), (0.99475, 0.03841, 0.00366, 0.09474), (0.9969, 0.03585, 0.00252, 0.06995), (0.99975, 0.02073, -0.00016, -0.00786), (0.99681, -0.00171, 0.00014, -0.07974)],
                    48: [(0.99981, 0.01963, 0.0, 0.0), (0.99655, 0.0353, 0.00266, 0.07508), (0.99488, 0.03863, 0.00362, 0.09328), (0.99875, 0.02863, 0.00118, 0.041), (0.99906, 0.00849, -0.00036, -0.04246)],
                    56: [(0.99971, 0.01016, -0.00022, -0.02181), (0.99893, 0.02978, 0.00105, 0.03526), (0.99502, 0.03886, 0.00358, 0.09166), (0.99629, 0.03452, 0.00273, 0.07879), (0.99982, 0.01813, 0.00011, 0.00625)],
                    64: [(0.99929, 0.0, -0.0, -0.03778), (0.99966, 0.02217, -0.00031, -0.01408), (0.99718, 0.03651, 0.0024, 0.06554), (0.9947, 0.03806, 0.00365, 0.09545), (0.99823, 0.02648, 0.00141, 0.05327)],
                    72: [(0.999, -0.01015, 0.00044, -0.04362), (0.99814, 0.01301, -0.00078, -0.05963), (0.99926, 0.03166, 0.00069, 0.0218), (0.99547, 0.03909, 0.0034, 0.08661), (0.99575, 0.03299, 0.00285, 0.08593)],
                    80: [(0.99909, -0.01962, 0.00074, -0.03777), (0.99601, 0.00299, -0.00027, -0.08915), (0.99931, 0.02457, -0.00068, -0.02784), (0.9978, 0.03752, 0.00205, 0.05458), (0.99472, 0.03727, 0.00358, 0.09558)],
                    88: [(0.99938, -0.02776, 0.00061, -0.02181), (0.99547, -0.00721, 0.00069, -0.09481), (0.99742, 0.01578, -0.00111, -0.06999), (0.99941, 0.03334, 0.00026, 0.00786), (0.99605, 0.0391, 0.00313, 0.07968)],
                    96: [(0.99942, -0.034, 0.0, -0.0), (0.99703, -0.01693, 0.00128, -0.07511), (0.99562, 0.00595, -0.00056, -0.09334), (0.9988, 0.02682, -0.0011, -0.041), (0.99836, 0.0383, 0.00163, 0.04243)],
                    104: [(0.99904, -0.03791, -0.00083, 0.0218), (0.99905, -0.02555, 0.0009, -0.03527), (0.99577, -0.00425, 0.00039, -0.09173), (0.99672, 0.01846, -0.00146, -0.07883), (0.99937, 0.03483, -0.00022, -0.00625)],
                    112: [(0.99852, -0.03923, -0.00148, 0.03775), (0.99938, -0.0324, -0.00046, 0.01407), (0.99775, -0.0142, 0.00093, -0.06558), (0.99539, 0.00888, -0.00085, -0.09552), (0.99816, 0.02891, -0.00154, -0.05326)],
                    120: [(0.99833, -0.03789, -0.00165, 0.04359), (0.99754, -0.03697, -0.00221, 0.05959), (0.99949, -0.02321, 0.00051, -0.0218), (0.99624, -0.00127, 0.00011, -0.08668), (0.99608, 0.02103, -0.00181, -0.08596)],
                    128: [(0.99871, -0.03398, -0.00128, 0.03776), (0.99525, -0.03899, -0.00349, 0.08909), (0.99914, -0.03061, -0.00085, 0.02784), (0.99844, -0.01138, 0.00062, -0.05461), (0.99535, 0.01176, -0.00113, -0.09564)],
                    136: [(0.99938, -0.02776, -0.00061, 0.02181), (0.99475, -0.03841, -0.00366, 0.09474), (0.9969, -0.03585, -0.00252, 0.06995), (0.99975, -0.02073, 0.00016, -0.00786), (0.99681, 0.00171, -0.00014, -0.07974)],
                    144: [(0.99981, -0.01963, -0.0, 0.0), (0.99655, -0.0353, -0.00266, 0.07508), (0.99488, -0.03863, -0.00362, 0.09328), (0.99875, -0.02863, -0.00118, 0.041), (0.99906, -0.00849, 0.00036, -0.04246)],
                    152: [(0.99971, -0.01016, 0.00022, -0.02181), (0.99893, -0.02978, -0.00105, 0.03526), (0.99502, -0.03886, -0.00358, 0.09166), (0.99629, -0.03452, -0.00273, 0.07879), (0.99982, -0.01813, -0.00011, 0.00625)],
                    160: [(0.99929, -0.0, 0.0, -0.03778), (0.99966, -0.02217, 0.00031, -0.01408), (0.99718, -0.03651, -0.0024, 0.06554), (0.9947, -0.03806, -0.00365, 0.09545), (0.99823, -0.02648, -0.00141, 0.05327)],
                    168: [(0.999, 0.01015, -0.00044, -0.04362), (0.99814, -0.01301, 0.00078, -0.05963), (0.99926, -0.03166, -0.00069, 0.0218), (0.99547, -0.03909, -0.0034, 0.08661), (0.99575, -0.03299, -0.00285, 0.08593)],
                    176: [(0.99909, 0.01962, -0.00074, -0.03777), (0.99601, -0.00299, 0.00027, -0.08915), (0.99931, -0.02457, 0.00068, -0.02784), (0.9978, -0.03752, -0.00205, 0.05458), (0.99472, -0.03727, -0.00358, 0.09558)],
                    184: [(0.99938, 0.02776, -0.00061, -0.02181), (0.99547, 0.00721, -0.00069, -0.09481), (0.99742, -0.01578, 0.00111, -0.06999), (0.99941, -0.03334, -0.00026, 0.00786), (0.99605, -0.0391, -0.00313, 0.07968)],
                    192: [(0.99942, 0.034, -0.0, -0.0), (0.99703, 0.01693, -0.00128, -0.07511), (0.99562, -0.00595, 0.00056, -0.09334), (0.9988, -0.02682, 0.0011, -0.041), (0.99836, -0.0383, -0.00163, 0.04243)]
                }
                half3[] scales.timeSamples = {
                    0: [(1, 1, 1), (1, 1, 1), (1, 1, 1), (1, 1, 1), (1, 1, 1)],
                    192: [(1, 1, 1), (1, 1, 1), (1, 1, 1), (1, 1, 1), (1, 1, 1)],
                }
            }
        }

        def Mesh "SerpentBody" (
            prepend apiSchemas = ["SkelBindingAPI", "MaterialBindingAPI"]
        )
        {
            uniform token subdivisionScheme = "none"
            point3f[] points = [(0.136, 0.0, 0.0), (0.11778, 0.0, 0.068), (0.068, 0.0, 0.11778), (0.0, 0.0, 0.136), (-0.068, 0.0, 0.11778), (-0.11778, 0.0, 0.068), (-0.136, 0.0, 0.0), (-0.11778, 0.0, -0.068), (-0.068, 0.0, -0.11778), (-0.0, 0.0, -0.136), (0.068, 0.0, -0.11778), (0.11778, 0.0, -0.068), (0.13762, 0.115, 0.0), (0.11919, 0.115, 0.06881), (0.06881, 0.115, 0.11919), (0.0, 0.115, 0.13762), (-0.06881, 0.115, 0.11919), (-0.11919, 0.115, 0.06881), (-0.13762, 0.115, 0.0), (-0.11919, 0.115, -0.06881), (-0.06881, 0.115, -0.11919), (-0.0, 0.115, -0.13762), (0.06881, 0.115, -0.11919), (0.11919, 0.115, -0.06881), (0.13864, 0.23, 0.0), (0.12006, 0.23, 0.06932), (0.06932, 0.23, 0.12006), (0.0, 0.23, 0.13864), (-0.06932, 0.23, 0.12006), (-0.12006, 0.23, 0.06932), (-0.13864, 0.23, 0.0), (-0.12006, 0.23, -0.06932), (-0.06932, 0.23, -0.12006), (-0.0, 0.23, -0.13864), (0.06932, 0.23, -0.12006), (0.12006, 0.23, -0.06932), (0.13893, 0.345, 0.0), (0.12032, 0.345, 0.06947), (0.06947, 0.345, 0.12032), (0.0, 0.345, 0.13893), (-0.06947, 0.345, 0.12032), (-0.12032, 0.345, 0.06947), (-0.13893, 0.345, 0.0), (-0.12032, 0.345, -0.06947), (-0.06947, 0.345, -0.12032), (-0.0, 0.345, -0.13893), (0.06947, 0.345, -0.12032), (0.12032, 0.345, -0.06947), (0.13843, 0.46, 0.0), (0.11989, 0.46, 0.06922), (0.06922, 0.46, 0.11989), (0.0, 0.46, 0.13843), (-0.06922, 0.46, 0.11989), (-0.11989, 0.46, 0.06922), (-0.13843, 0.46, 0.0), (-0.11989, 0.46, -0.06922), (-0.06922, 0.46, -0.11989), (-0.0, 0.46, -0.13843), (0.06922, 0.46, -0.11989), (0.11989, 0.46, -0.06922), (0.13708, 0.575, 0.0), (0.11872, 0.575, 0.06854), (0.06854, 0.575, 0.11872), (0.0, 0.575, 0.13708), (-0.06854, 0.575, 0.11872), (-0.11872, 0.575, 0.06854), (-0.13708, 0.575, 0.0), (-0.11872, 0.575, -0.06854), (-0.06854, 0.575, -0.11872), (-0.0, 0.575, -0.13708), (0.06854, 0.575, -0.11872), (0.11872, 0.575, -0.06854), (0.13485, 0.69, 0.0), (0.11679, 0.69, 0.06743), (0.06743, 0.69, 0.11679), (0.0, 0.69, 0.13485), (-0.06743, 0.69, 0.11679), (-0.11679, 0.69, 0.06743), (-0.13485, 0.69, 0.0), (-0.11679, 0.69, -0.06743), (-0.06743, 0.69, -0.11679), (-0.0, 0.69, -0.13485), (0.06743, 0.69, -0.11679), (0.11679, 0.69, -0.06743), (0.13174, 0.805, 0.0), (0.11409, 0.805, 0.06587), (0.06587, 0.805, 0.11409), (0.0, 0.805, 0.13174), (-0.06587, 0.805, 0.11409), (-0.11409, 0.805, 0.06587), (-0.13174, 0.805, 0.0), (-0.11409, 0.805, -0.06587), (-0.06587, 0.805, -0.11409), (-0.0, 0.805, -0.13174), (0.06587, 0.805, -0.11409), (0.11409, 0.805, -0.06587), (0.12776, 0.92, 0.0), (0.11064, 0.92, 0.06388), (0.06388, 0.92, 0.11064), (0.0, 0.92, 0.12776), (-0.06388, 0.92, 0.11064), (-0.11064, 0.92, 0.06388), (-0.12776, 0.92, 0.0), (-0.11064, 0.92, -0.06388), (-0.06388, 0.92, -0.11064), (-0.0, 0.92, -0.12776), (0.06388, 0.92, -0.11064), (0.11064, 0.92, -0.06388), (0.12295, 1.035, 0.0), (0.10648, 1.035, 0.06147), (0.06147, 1.035, 0.10648), (0.0, 1.035, 0.12295), (-0.06147, 1.035, 0.10648), (-0.10648, 1.035, 0.06147), (-0.12295, 1.035, 0.0), (-0.10648, 1.035, -0.06147), (-0.06147, 1.035, -0.10648), (-0.0, 1.035, -0.12295), (0.06147, 1.035, -0.10648), (0.10648, 1.035, -0.06147), (0.11738, 1.15, 0.0), (0.10166, 1.15, 0.05869), (0.05869, 1.15, 0.10166), (0.0, 1.15, 0.11738), (-0.05869, 1.15, 0.10166), (-0.10166, 1.15, 0.05869), (-0.11738, 1.15, 0.0), (-0.10166, 1.15, -0.05869), (-0.05869, 1.15, -0.10166), (-0.0, 1.15, -0.11738), (0.05869, 1.15, -0.10166), (0.10166, 1.15, -0.05869), (0.11113, 1.265, 0.0), (0.09624, 1.265, 0.05557), (0.05557, 1.265, 0.09624), (0.0, 1.265, 0.11113), (-0.05557, 1.265, 0.09624), (-0.09624, 1.265, 0.05557), (-0.11113, 1.265, 0.0), (-0.09624, 1.265, -0.05557), (-0.05557, 1.265, -0.09624), (-0.0, 1.265, -0.11113), (0.05557, 1.265, -0.09624), (0.09624, 1.265, -0.05557), (0.1043, 1.38, 0.0), (0.09032, 1.38, 0.05215), (0.05215, 1.38, 0.09032), (0.0, 1.38, 0.1043), (-0.05215, 1.38, 0.09032), (-0.09032, 1.38, 0.05215), (-0.1043, 1.38, 0.0), (-0.09032, 1.38, -0.05215), (-0.05215, 1.38, -0.09032), (-0.0, 1.38, -0.1043), (0.05215, 1.38, -0.09032), (0.09032, 1.38, -0.05215), (0.097, 1.495, 0.0), (0.084, 1.495, 0.0485), (0.0485, 1.495, 0.084), (0.0, 1.495, 0.097), (-0.0485, 1.495, 0.084), (-0.084, 1.495, 0.0485), (-0.097, 1.495, 0.0), (-0.084, 1.495, -0.0485), (-0.0485, 1.495, -0.084), (-0.0, 1.495, -0.097), (0.0485, 1.495, -0.084), (0.084, 1.495, -0.0485), (0.08962, 1.61, 0.0), (0.07761, 1.61, 0.04481), (0.04481, 1.61, 0.07761), (0.0, 1.61, 0.08962), (-0.04481, 1.61, 0.07761), (-0.07761, 1.61, 0.04481), (-0.08962, 1.61, 0.0), (-0.07761, 1.61, -0.04481), (-0.04481, 1.61, -0.07761), (-0.0, 1.61, -0.08962), (0.04481, 1.61, -0.07761), (0.07761, 1.61, -0.04481), (0.08458, 1.725, 0.0), (0.07325, 1.725, 0.04229), (0.04229, 1.725, 0.07325), (0.0, 1.725, 0.08458), (-0.04229, 1.725, 0.07325), (-0.07325, 1.725, 0.04229), (-0.08458, 1.725, 0.0), (-0.07325, 1.725, -0.04229), (-0.04229, 1.725, -0.07325), (-0.0, 1.725, -0.08458), (0.04229, 1.725, -0.07325), (0.07325, 1.725, -0.04229), (0.08819, 1.84, 0.0), (0.07637, 1.84, 0.04409), (0.04409, 1.84, 0.07637), (0.0, 1.84, 0.08819), (-0.04409, 1.84, 0.07637), (-0.07637, 1.84, 0.04409), (-0.08819, 1.84, 0.0), (-0.07637, 1.84, -0.04409), (-0.04409, 1.84, -0.07637), (-0.0, 1.84, -0.08819), (0.04409, 1.84, -0.07637), (0.07637, 1.84, -0.04409), (0.09651, 1.955, 0.0), (0.08358, 1.955, 0.04825), (0.04825, 1.955, 0.08358), (0.0, 1.955, 0.09651), (-0.04825, 1.955, 0.08358), (-0.08358, 1.955, 0.04825), (-0.09651, 1.955, 0.0), (-0.08358, 1.955, -0.04825), (-0.04825, 1.955, -0.08358), (-0.0, 1.955, -0.09651), (0.04825, 1.955, -0.08358), (0.08358, 1.955, -0.04825), (0.08701, 2.07, 0.0), (0.07535, 2.07, 0.04351), (0.04351, 2.07, 0.07535), (0.0, 2.07, 0.08701), (-0.04351, 2.07, 0.07535), (-0.07535, 2.07, 0.04351), (-0.08701, 2.07, 0.0), (-0.07535, 2.07, -0.04351), (-0.04351, 2.07, -0.07535), (-0.0, 2.07, -0.08701), (0.04351, 2.07, -0.07535), (0.07535, 2.07, -0.04351), (0.06235, 2.185, 0.0), (0.05399, 2.185, 0.03117), (0.03117, 2.185, 0.05399), (0.0, 2.185, 0.06235), (-0.03117, 2.185, 0.05399), (-0.05399, 2.185, 0.03117), (-0.06235, 2.185, 0.0), (-0.05399, 2.185, -0.03117), (-0.03117, 2.185, -0.05399), (-0.0, 2.185, -0.06235), (0.03117, 2.185, -0.05399), (0.05399, 2.185, -0.03117), (0.04468, 2.3, 0.0), (0.0387, 2.3, 0.02234), (0.02234, 2.3, 0.0387), (0.0, 2.3, 0.04468), (-0.02234, 2.3, 0.0387), (-0.0387, 2.3, 0.02234), (-0.04468, 2.3, 0.0), (-0.0387, 2.3, -0.02234), (-0.02234, 2.3, -0.0387), (-0.0, 2.3, -0.04468), (0.02234, 2.3, -0.0387), (0.0387, 2.3, -0.02234), (0.0, 2.44, 0.0)]
            int[] faceVertexCounts = [4, 4, 4, 4, 4, 4, 4, 4, 4, 4, 4, 4, 4, 4, 4, 4, 4, 4, 4, 4, 4, 4, 4, 4, 4, 4, 4, 4, 4, 4, 4, 4, 4, 4, 4, 4, 4, 4, 4, 4, 4, 4, 4, 4, 4, 4, 4, 4, 4, 4, 4, 4, 4, 4, 4, 4, 4, 4, 4, 4, 4, 4, 4, 4, 4, 4, 4, 4, 4, 4, 4, 4, 4, 4, 4, 4, 4, 4, 4, 4, 4, 4, 4, 4, 4, 4, 4, 4, 4, 4, 4, 4, 4, 4, 4, 4, 4, 4, 4, 4, 4, 4, 4, 4, 4, 4, 4, 4, 4, 4, 4, 4, 4, 4, 4, 4, 4, 4, 4, 4, 4, 4, 4, 4, 4, 4, 4, 4, 4, 4, 4, 4, 4, 4, 4, 4, 4, 4, 4, 4, 4, 4, 4, 4, 4, 4, 4, 4, 4, 4, 4, 4, 4, 4, 4, 4, 4, 4, 4, 4, 4, 4, 4, 4, 4, 4, 4, 4, 4, 4, 4, 4, 4, 4, 4, 4, 4, 4, 4, 4, 4, 4, 4, 4, 4, 4, 4, 4, 4, 4, 4, 4, 4, 4, 4, 4, 4, 4, 4, 4, 4, 4, 4, 4, 4, 4, 4, 4, 4, 4, 4, 4, 4, 4, 4, 4, 4, 4, 4, 4, 4, 4, 4, 4, 4, 4, 4, 4, 4, 4, 4, 4, 4, 4, 4, 4, 4, 4, 4, 4, 3, 3, 3, 3, 3, 3, 3, 3, 3, 3, 3, 3]
            int[] faceVertexIndices = [0, 12, 13, 1, 1, 13, 14, 2, 2, 14, 15, 3, 3, 15, 16, 4, 4, 16, 17, 5, 5, 17, 18, 6, 6, 18, 19, 7, 7, 19, 20, 8, 8, 20, 21, 9, 9, 21, 22, 10, 10, 22, 23, 11, 11, 23, 12, 0, 12, 24, 25, 13, 13, 25, 26, 14, 14, 26, 27, 15, 15, 27, 28, 16, 16, 28, 29, 17, 17, 29, 30, 18, 18, 30, 31, 19, 19, 31, 32, 20, 20, 32, 33, 21, 21, 33, 34, 22, 22, 34, 35, 23, 23, 35, 24, 12, 24, 36, 37, 25, 25, 37, 38, 26, 26, 38, 39, 27, 27, 39, 40, 28, 28, 40, 41, 29, 29, 41, 42, 30, 30, 42, 43, 31, 31, 43, 44, 32, 32, 44, 45, 33, 33, 45, 46, 34, 34, 46, 47, 35, 35, 47, 36, 24, 36, 48, 49, 37, 37, 49, 50, 38, 38, 50, 51, 39, 39, 51, 52, 40, 40, 52, 53, 41, 41, 53, 54, 42, 42, 54, 55, 43, 43, 55, 56, 44, 44, 56, 57, 45, 45, 57, 58, 46, 46, 58, 59, 47, 47, 59, 48, 36, 48, 60, 61, 49, 49, 61, 62, 50, 50, 62, 63, 51, 51, 63, 64, 52, 52, 64, 65, 53, 53, 65, 66, 54, 54, 66, 67, 55, 55, 67, 68, 56, 56, 68, 69, 57, 57, 69, 70, 58, 58, 70, 71, 59, 59, 71, 60, 48, 60, 72, 73, 61, 61, 73, 74, 62, 62, 74, 75, 63, 63, 75, 76, 64, 64, 76, 77, 65, 65, 77, 78, 66, 66, 78, 79, 67, 67, 79, 80, 68, 68, 80, 81, 69, 69, 81, 82, 70, 70, 82, 83, 71, 71, 83, 72, 60, 72, 84, 85, 73, 73, 85, 86, 74, 74, 86, 87, 75, 75, 87, 88, 76, 76, 88, 89, 77, 77, 89, 90, 78, 78, 90, 91, 79, 79, 91, 92, 80, 80, 92, 93, 81, 81, 93, 94, 82, 82, 94, 95, 83, 83, 95, 84, 72, 84, 96, 97, 85, 85, 97, 98, 86, 86, 98, 99, 87, 87, 99, 100, 88, 88, 100, 101, 89, 89, 101, 102, 90, 90, 102, 103, 91, 91, 103, 104, 92, 92, 104, 105, 93, 93, 105, 106, 94, 94, 106, 107, 95, 95, 107, 96, 84, 96, 108, 109, 97, 97, 109, 110, 98, 98, 110, 111, 99, 99, 111, 112, 100, 100, 112, 113, 101, 101, 113, 114, 102, 102, 114, 115, 103, 103, 115, 116, 104, 104, 116, 117, 105, 105, 117, 118, 106, 106, 118, 119, 107, 107, 119, 108, 96, 108, 120, 121, 109, 109, 121, 122, 110, 110, 122, 123, 111, 111, 123, 124, 112, 112, 124, 125, 113, 113, 125, 126, 114, 114, 126, 127, 115, 115, 127, 128, 116, 116, 128, 129, 117, 117, 129, 130, 118, 118, 130, 131, 119, 119, 131, 120, 108, 120, 132, 133, 121, 121, 133, 134, 122, 122, 134, 135, 123, 123, 135, 136, 124, 124, 136, 137, 125, 125, 137, 138, 126, 126, 138, 139, 127, 127, 139, 140, 128, 128, 140, 141, 129, 129, 141, 142, 130, 130, 142, 143, 131, 131, 143, 132, 120, 132, 144, 145, 133, 133, 145, 146, 134, 134, 146, 147, 135, 135, 147, 148, 136, 136, 148, 149, 137, 137, 149, 150, 138, 138, 150, 151, 139, 139, 151, 152, 140, 140, 152, 153, 141, 141, 153, 154, 142, 142, 154, 155, 143, 143, 155, 144, 132, 144, 156, 157, 145, 145, 157, 158, 146, 146, 158, 159, 147, 147, 159, 160, 148, 148, 160, 161, 149, 149, 161, 162, 150, 150, 162, 163, 151, 151, 163, 164, 152, 152, 164, 165, 153, 153, 165, 166, 154, 154, 166, 167, 155, 155, 167, 156, 144, 156, 168, 169, 157, 157, 169, 170, 158, 158, 170, 171, 159, 159, 171, 172, 160, 160, 172, 173, 161, 161, 173, 174, 162, 162, 174, 175, 163, 163, 175, 176, 164, 164, 176, 177, 165, 165, 177, 178, 166, 166, 178, 179, 167, 167, 179, 168, 156, 168, 180, 181, 169, 169, 181, 182, 170, 170, 182, 183, 171, 171, 183, 184, 172, 172, 184, 185, 173, 173, 185, 186, 174, 174, 186, 187, 175, 175, 187, 188, 176, 176, 188, 189, 177, 177, 189, 190, 178, 178, 190, 191, 179, 179, 191, 180, 168, 180, 192, 193, 181, 181, 193, 194, 182, 182, 194, 195, 183, 183, 195, 196, 184, 184, 196, 197, 185, 185, 197, 198, 186, 186, 198, 199, 187, 187, 199, 200, 188, 188, 200, 201, 189, 189, 201, 202, 190, 190, 202, 203, 191, 191, 203, 192, 180, 192, 204, 205, 193, 193, 205, 206, 194, 194, 206, 207, 195, 195, 207, 208, 196, 196, 208, 209, 197, 197, 209, 210, 198, 198, 210, 211, 199, 199, 211, 212, 200, 200, 212, 213, 201, 201, 213, 214, 202, 202, 214, 215, 203, 203, 215, 204, 192, 204, 216, 217, 205, 205, 217, 218, 206, 206, 218, 219, 207, 207, 219, 220, 208, 208, 220, 221, 209, 209, 221, 222, 210, 210, 222, 223, 211, 211, 223, 224, 212, 212, 224, 225, 213, 213, 225, 226, 214, 214, 226, 227, 215, 215, 227, 216, 204, 216, 228, 229, 217, 217, 229, 230, 218, 218, 230, 231, 219, 219, 231, 232, 220, 220, 232, 233, 221, 221, 233, 234, 222, 222, 234, 235, 223, 223, 235, 236, 224, 224, 236, 237, 225, 225, 237, 238, 226, 226, 238, 239, 227, 227, 239, 228, 216, 228, 240, 241, 229, 229, 241, 242, 230, 230, 242, 243, 231, 231, 243, 244, 232, 232, 244, 245, 233, 233, 245, 246, 234, 234, 246, 247, 235, 235, 247, 248, 236, 236, 248, 249, 237, 237, 249, 250, 238, 238, 250, 251, 239, 239, 251, 240, 228, 241, 240, 252, 242, 241, 252, 243, 242, 252, 244, 243, 252, 245, 244, 252, 246, 245, 252, 247, 246, 252, 248, 247, 252, 249, 248, 252, 250, 249, 252, 251, 250, 252, 240, 251, 252]
            rel skel:skeleton = </Pond/Serpent/SerpentSkel>
            matrix4d primvars:skel:geomBindTransform = ((1, 0, 0, 0), (0, 1, 0, 0), (0, 0, 1, 0), (-0.72, 0.02, 0.3, 1))
            int[] primvars:skel:jointIndices = [0, 1, 0, 1, 0, 1, 0, 1, 0, 1, 0, 1, 0, 1, 0, 1, 0, 1, 0, 1, 0, 1, 0, 1, 0, 1, 0, 1, 0, 1, 0, 1, 0, 1, 0, 1, 0, 1, 0, 1, 0, 1, 0, 1, 0, 1, 0, 1, 0, 1, 0, 1, 0, 1, 0, 1, 0, 1, 0, 1, 0, 1, 0, 1, 0, 1, 0, 1, 0, 1, 0, 1, 0, 1, 0, 1, 0, 1, 0, 1, 0, 1, 0, 1, 0, 1, 0, 1, 0, 1, 0, 1, 0, 1, 0, 1, 0, 1, 0, 1, 0, 1, 0, 1, 0, 1, 0, 1, 0, 1, 0, 1, 0, 1, 0, 1, 0, 1, 0, 1, 1, 2, 1, 2, 1, 2, 1, 2, 1, 2, 1, 2, 1, 2, 1, 2, 1, 2, 1, 2, 1, 2, 1, 2, 1, 2, 1, 2, 1, 2, 1, 2, 1, 2, 1, 2, 1, 2, 1, 2, 1, 2, 1, 2, 1, 2, 1, 2, 1, 2, 1, 2, 1, 2, 1, 2, 1, 2, 1, 2, 1, 2, 1, 2, 1, 2, 1, 2, 1, 2, 1, 2, 1, 2, 1, 2, 1, 2, 1, 2, 1, 2, 1, 2, 1, 2, 1, 2, 1, 2, 1, 2, 1, 2, 1, 2, 1, 2, 1, 2, 1, 2, 1, 2, 1, 2, 1, 2, 1, 2, 1, 2, 1, 2, 1, 2, 1, 2, 1, 2, 2, 3, 2, 3, 2, 3, 2, 3, 2, 3, 2, 3, 2, 3, 2, 3, 2, 3, 2, 3, 2, 3, 2, 3, 2, 3, 2, 3, 2, 3, 2, 3, 2, 3, 2, 3, 2, 3, 2, 3, 2, 3, 2, 3, 2, 3, 2, 3, 2, 3, 2, 3, 2, 3, 2, 3, 2, 3, 2, 3, 2, 3, 2, 3, 2, 3, 2, 3, 2, 3, 2, 3, 2, 3, 2, 3, 2, 3, 2, 3, 2, 3, 2, 3, 2, 3, 2, 3, 2, 3, 2, 3, 2, 3, 2, 3, 2, 3, 2, 3, 2, 3, 2, 3, 2, 3, 2, 3, 2, 3, 2, 3, 2, 3, 2, 3, 2, 3, 2, 3, 3, 4, 3, 4, 3, 4, 3, 4, 3, 4, 3, 4, 3, 4, 3, 4, 3, 4, 3, 4, 3, 4, 3, 4, 3, 4, 3, 4, 3, 4, 3, 4, 3, 4, 3, 4, 3, 4, 3, 4, 3, 4, 3, 4, 3, 4, 3, 4, 3, 4, 3, 4, 3, 4, 3, 4, 3, 4, 3, 4, 3, 4, 3, 4, 3, 4, 3, 4, 3, 4, 3, 4, 3, 4, 3, 4, 3, 4, 3, 4, 3, 4, 3, 4, 3, 4, 3, 4, 3, 4, 3, 4, 3, 4, 3, 4, 3, 4, 3, 4, 3, 4, 3, 4, 3, 4, 3, 4, 3, 4, 3, 4, 3, 4, 3, 4, 3, 4, 3, 4, 3, 4, 3, 4, 3, 4, 3, 4, 3, 4, 3, 4, 3, 4, 3, 4, 3, 4, 3, 4, 3, 4, 3, 4, 4, 0] (
                elementSize = 2
                interpolation = "vertex"
            )
            float[] primvars:skel:jointWeights = [1.0, 0.0, 1.0, 0.0, 1.0, 0.0, 1.0, 0.0, 1.0, 0.0, 1.0, 0.0, 1.0, 0.0, 1.0, 0.0, 1.0, 0.0, 1.0, 0.0, 1.0, 0.0, 1.0, 0.0, 0.79091, 0.20909, 0.79091, 0.20909, 0.79091, 0.20909, 0.79091, 0.20909, 0.79091, 0.20909, 0.79091, 0.20909, 0.79091, 0.20909, 0.79091, 0.20909, 0.79091, 0.20909, 0.79091, 0.20909, 0.79091, 0.20909, 0.79091, 0.20909, 0.58182, 0.41818, 0.58182, 0.41818, 0.58182, 0.41818, 0.58182, 0.41818, 0.58182, 0.41818, 0.58182, 0.41818, 0.58182, 0.41818, 0.58182, 0.41818, 0.58182, 0.41818, 0.58182, 0.41818, 0.58182, 0.41818, 0.58182, 0.41818, 0.37273, 0.62727, 0.37273, 0.62727, 0.37273, 0.62727, 0.37273, 0.62727, 0.37273, 0.62727, 0.37273, 0.62727, 0.37273, 0.62727, 0.37273, 0.62727, 0.37273, 0.62727, 0.37273, 0.62727, 0.37273, 0.62727, 0.37273, 0.62727, 0.16364, 0.83636, 0.16364, 0.83636, 0.16364, 0.83636, 0.16364, 0.83636, 0.16364, 0.83636, 0.16364, 0.83636, 0.16364, 0.83636, 0.16364, 0.83636, 0.16364, 0.83636, 0.16364, 0.83636, 0.16364, 0.83636, 0.16364, 0.83636, 0.95455, 0.04545, 0.95455, 0.04545, 0.95455, 0.04545, 0.95455, 0.04545, 0.95455, 0.04545, 0.95455, 0.04545, 0.95455, 0.04545, 0.95455, 0.04545, 0.95455, 0.04545, 0.95455, 0.04545, 0.95455, 0.04545, 0.95455, 0.04545, 0.74545, 0.25455, 0.74545, 0.25455, 0.74545, 0.25455, 0.74545, 0.25455, 0.74545, 0.25455, 0.74545, 0.25455, 0.74545, 0.25455, 0.74545, 0.25455, 0.74545, 0.25455, 0.74545, 0.25455, 0.74545, 0.25455, 0.74545, 0.25455, 0.53636, 0.46364, 0.53636, 0.46364, 0.53636, 0.46364, 0.53636, 0.46364, 0.53636, 0.46364, 0.53636, 0.46364, 0.53636, 0.46364, 0.53636, 0.46364, 0.53636, 0.46364, 0.53636, 0.46364, 0.53636, 0.46364, 0.53636, 0.46364, 0.32727, 0.67273, 0.32727, 0.67273, 0.32727, 0.67273, 0.32727, 0.67273, 0.32727, 0.67273, 0.32727, 0.67273, 0.32727, 0.67273, 0.32727, 0.67273, 0.32727, 0.67273, 0.32727, 0.67273, 0.32727, 0.67273, 0.32727, 0.67273, 0.11818, 0.88182, 0.11818, 0.88182, 0.11818, 0.88182, 0.11818, 0.88182, 0.11818, 0.88182, 0.11818, 0.88182, 0.11818, 0.88182, 0.11818, 0.88182, 0.11818, 0.88182, 0.11818, 0.88182, 0.11818, 0.88182, 0.11818, 0.88182, 0.90909, 0.09091, 0.90909, 0.09091, 0.90909, 0.09091, 0.90909, 0.09091, 0.90909, 0.09091, 0.90909, 0.09091, 0.90909, 0.09091, 0.90909, 0.09091, 0.90909, 0.09091, 0.90909, 0.09091, 0.90909, 0.09091, 0.90909, 0.09091, 0.7, 0.3, 0.7, 0.3, 0.7, 0.3, 0.7, 0.3, 0.7, 0.3, 0.7, 0.3, 0.7, 0.3, 0.7, 0.3, 0.7, 0.3, 0.7, 0.3, 0.7, 0.3, 0.7, 0.3, 0.49091, 0.50909, 0.49091, 0.50909, 0.49091, 0.50909, 0.49091, 0.50909, 0.49091, 0.50909, 0.49091, 0.50909, 0.49091, 0.50909, 0.49091, 0.50909, 0.49091, 0.50909, 0.49091, 0.50909, 0.49091, 0.50909, 0.49091, 0.50909, 0.28182, 0.71818, 0.28182, 0.71818, 0.28182, 0.71818, 0.28182, 0.71818, 0.28182, 0.71818, 0.28182, 0.71818, 0.28182, 0.71818, 0.28182, 0.71818, 0.28182, 0.71818, 0.28182, 0.71818, 0.28182, 0.71818, 0.28182, 0.71818, 0.07273, 0.92727, 0.07273, 0.92727, 0.07273, 0.92727, 0.07273, 0.92727, 0.07273, 0.92727, 0.07273, 0.92727, 0.07273, 0.92727, 0.07273, 0.92727, 0.07273, 0.92727, 0.07273, 0.92727, 0.07273, 0.92727, 0.07273, 0.92727, 0.86364, 0.13636, 0.86364, 0.13636, 0.86364, 0.13636, 0.86364, 0.13636, 0.86364, 0.13636, 0.86364, 0.13636, 0.86364, 0.13636, 0.86364, 0.13636, 0.86364, 0.13636, 0.86364, 0.13636, 0.86364, 0.13636, 0.86364, 0.13636, 0.65455, 0.34545, 0.65455, 0.34545, 0.65455, 0.34545, 0.65455, 0.34545, 0.65455, 0.34545, 0.65455, 0.34545, 0.65455, 0.34545, 0.65455, 0.34545, 0.65455, 0.34545, 0.65455, 0.34545, 0.65455, 0.34545, 0.65455, 0.34545, 0.44545, 0.55455, 0.44545, 0.55455, 0.44545, 0.55455, 0.44545, 0.55455, 0.44545, 0.55455, 0.44545, 0.55455, 0.44545, 0.55455, 0.44545, 0.55455, 0.44545, 0.55455, 0.44545, 0.55455, 0.44545, 0.55455, 0.44545, 0.55455, 0.23636, 0.76364, 0.23636, 0.76364, 0.23636, 0.76364, 0.23636, 0.76364, 0.23636, 0.76364, 0.23636, 0.76364, 0.23636, 0.76364, 0.23636, 0.76364, 0.23636, 0.76364, 0.23636, 0.76364, 0.23636, 0.76364, 0.23636, 0.76364, 0.02727, 0.97273, 0.02727, 0.97273, 0.02727, 0.97273, 0.02727, 0.97273, 0.02727, 0.97273, 0.02727, 0.97273, 0.02727, 0.97273, 0.02727, 0.97273, 0.02727, 0.97273, 0.02727, 0.97273, 0.02727, 0.97273, 0.02727, 0.97273, 0.0, 1.0, 0.0, 1.0, 0.0, 1.0, 0.0, 1.0, 0.0, 1.0, 0.0, 1.0, 0.0, 1.0, 0.0, 1.0, 0.0, 1.0, 0.0, 1.0, 0.0, 1.0, 0.0, 1.0, 1.0, 0.0] (
                elementSize = 2
                interpolation = "vertex"
            )
            rel material:binding = </Pond/Materials/scales>
        }
    }

    def SkelRoot "Lotus" (
        prepend apiSchemas = ["SkelBindingAPI"]
    )
    {
        double3 xformOp:translate = (0.78, 0.06, -0.24)
        uniform token[] xformOpOrder = ["xformOp:translate"]
        rel skel:animationSource = </Pond/Lotus/LotusAnim>

        def SkelAnimation "LotusAnim"
        {
            uniform token[] blendShapes = ["bloom", "curl"]
            float[] blendShapeWeights.timeSamples = {
                0: [0.0, 0.35267],
                8: [0.01704, 0.54813],
                16: [0.06699, 0.59671],
                24: [0.14645, 0.48541],
                32: [0.25, 0.24404],
                40: [0.37059, 0.0],
                48: [0.5, 0.0],
                56: [0.62941, 0.0],
                64: [0.75, 0.0],
                72: [0.85355, 0.0],
                80: [0.93301, 0.0],
                88: [0.98296, 0.06272],
                96: [1.0, 0.35267],
                104: [0.98296, 0.54813],
                112: [0.93301, 0.59671],
                120: [0.85355, 0.48541],
                128: [0.75, 0.24404],
                136: [0.62941, 0.0],
                144: [0.5, 0.0],
                152: [0.37059, 0.0],
                160: [0.25, 0.0],
                168: [0.14645, 0.0],
                176: [0.06699, 0.0],
                184: [0.01704, 0.06272],
                192: [0.0, 0.35267]
            }
        }

        def Mesh "LotusPetals" (
            prepend apiSchemas = ["SkelBindingAPI", "MaterialBindingAPI"]
        )
        {
            uniform token subdivisionScheme = "none"
            point3f[] points = [(0.1, 0.02, 0.0), (0.3, 0.06, 0.11), (0.52, 0.1, 0.0), (0.3, 0.06, -0.11), (0.07071, 0.02, 0.07071), (0.13435, 0.06, 0.28991), (0.3677, 0.1, 0.3677), (0.28991, 0.06, 0.13435), (0.0, 0.02, 0.1), (-0.11, 0.06, 0.3), (0.0, 0.1, 0.52), (0.11, 0.06, 0.3), (-0.07071, 0.02, 0.07071), (-0.28991, 0.06, 0.13435), (-0.3677, 0.1, 0.3677), (-0.13435, 0.06, 0.28991), (-0.1, 0.02, 0.0), (-0.3, 0.06, -0.11), (-0.52, 0.1, 0.0), (-0.3, 0.06, 0.11), (-0.07071, 0.02, -0.07071), (-0.13435, 0.06, -0.28991), (-0.3677, 0.1, -0.3677), (-0.28991, 0.06, -0.13435), (-0.0, 0.02, -0.1), (0.11, 0.06, -0.3), (-0.0, 0.1, -0.52), (-0.11, 0.06, -0.3), (0.07071, 0.02, -0.07071), (0.28991, 0.06, -0.13435), (0.3677, 0.1, -0.3677), (0.13435, 0.06, -0.28991)]
            int[] faceVertexCounts = [4, 4, 4, 4, 4, 4, 4, 4]
            int[] faceVertexIndices = [0, 1, 2, 3, 4, 5, 6, 7, 8, 9, 10, 11, 12, 13, 14, 15, 16, 17, 18, 19, 20, 21, 22, 23, 24, 25, 26, 27, 28, 29, 30, 31]
            uniform token[] skel:blendShapes = ["bloom", "curl"]
            rel skel:blendShapeTargets = [</Pond/Lotus/LotusPetals/bloom>, </Pond/Lotus/LotusPetals/curl>]
            rel material:binding = </Pond/Materials/petal>

            def BlendShape "bloom"
            {
                uniform vector3f[] offsets = [(0.0, 0.01, 0.0), (-0.12, 0.16, -0.06), (-0.34, 0.34, -0.0), (-0.12, 0.16, 0.06), (0.0, 0.01, 0.0), (-0.04243, 0.16, -0.12728), (-0.24042, 0.34, -0.24042), (-0.12728, 0.16, -0.04243), (0.0, 0.01, 0.0), (0.06, 0.16, -0.12), (-0.0, 0.34, -0.34), (-0.06, 0.16, -0.12), (0.0, 0.01, 0.0), (0.12728, 0.16, -0.04243), (0.24042, 0.34, -0.24042), (0.04243, 0.16, -0.12728), (0.0, 0.01, 0.0), (0.12, 0.16, 0.06), (0.34, 0.34, -0.0), (0.12, 0.16, -0.06), (0.0, 0.01, 0.0), (0.04243, 0.16, 0.12728), (0.24042, 0.34, 0.24042), (0.12728, 0.16, 0.04243), (0.0, 0.01, 0.0), (-0.06, 0.16, 0.12), (0.0, 0.34, 0.34), (0.06, 0.16, 0.12), (0.0, 0.01, 0.0), (-0.12728, 0.16, 0.04243), (-0.24042, 0.34, 0.24042), (-0.04243, 0.16, 0.12728)]
                uniform vector3f[] normalOffsets = [(0.0, 0.0, 0.0), (0.3, -0.1, 0.0), (0.6, -0.2, 0.0), (0.3, -0.1, 0.0), (0.0, 0.0, 0.0), (0.21213, -0.1, 0.21213), (0.42426, -0.2, 0.42426), (0.21213, -0.1, 0.21213), (0.0, 0.0, 0.0), (0.0, -0.1, 0.3), (0.0, -0.2, 0.6), (0.0, -0.1, 0.3), (0.0, 0.0, 0.0), (-0.21213, -0.1, 0.21213), (-0.42426, -0.2, 0.42426), (-0.21213, -0.1, 0.21213), (0.0, 0.0, 0.0), (-0.3, -0.1, 0.0), (-0.6, -0.2, 0.0), (-0.3, -0.1, 0.0), (0.0, 0.0, 0.0), (-0.21213, -0.1, -0.21213), (-0.42426, -0.2, -0.42426), (-0.21213, -0.1, -0.21213), (0.0, 0.0, 0.0), (-0.0, -0.1, -0.3), (-0.0, -0.2, -0.6), (-0.0, -0.1, -0.3), (0.0, 0.0, 0.0), (0.21213, -0.1, -0.21213), (0.42426, -0.2, -0.42426), (0.21213, -0.1, -0.21213)]
            }

            def BlendShape "curl"
            {
                uniform vector3f[] offsets = [(0.1, -0.05, 0.0), (0.07071, -0.05, 0.07071), (0.0, -0.05, 0.1), (-0.07071, -0.05, 0.07071), (-0.1, -0.05, 0.0), (-0.07071, -0.05, -0.07071), (-0.0, -0.05, -0.1), (0.07071, -0.05, -0.07071)]
                uniform int[] pointIndices = [2, 6, 10, 14, 18, 22, 26, 30]
            }
        }
    }

    def Camera "view"
    {
        double3 xformOp:translate = (0, 2.1, 6.6)
        float3 xformOp:rotateXYZ = (-12, 0, 0)
        uniform token[] xformOpOrder = ["xformOp:translate", "xformOp:rotateXYZ"]
        float focalLength = 24
        float horizontalAperture = 20.955
        float verticalAperture = 15.2908
        float2 clippingRange = (0.1, 100)
    }

    def Scope "Lights"
    {
        def DistantLight "key"
        {
            float3 xformOp:rotateXYZ = (-38, 32, 0)
            uniform token[] xformOpOrder = ["xformOp:rotateXYZ"]
            color3f inputs:color = (0.9, 0.78, 0.6)
            float inputs:intensity = 3000
            float inputs:angle = 0.53
        }

        def SphereLight "fill"
        {
            double3 xformOp:translate = (-2.4, 2.4, 2.8)
            uniform token[] xformOpOrder = ["xformOp:translate"]
            color3f inputs:color = (0.13, 0.2, 0.35)
            float inputs:intensity = 10
            float inputs:radius = 0.3
        }
    }

    def Scope "Materials"
    {
        def Material "water"
        {
            token outputs:surface.connect = </Pond/Materials/water/pbr.outputs:surface>

            def Shader "pbr"
            {
                uniform token info:id = "UsdPreviewSurface"
                color3f inputs:diffuseColor = (0.1, 0.2, 0.26)
                float inputs:roughness = 0.18
                float inputs:metallic = 0.1
                token outputs:surface
            }
        }

        def Material "scales"
        {
            token outputs:surface.connect = </Pond/Materials/scales/pbr.outputs:surface>

            def Shader "pbr"
            {
                uniform token info:id = "UsdPreviewSurface"
                color3f inputs:diffuseColor = (0.22, 0.55, 0.46)
                float inputs:roughness = 0.42
                float inputs:metallic = 0.25
                token outputs:surface
            }
        }

        def Material "petal"
        {
            token outputs:surface.connect = </Pond/Materials/petal/pbr.outputs:surface>

            def Shader "pbr"
            {
                uniform token info:id = "UsdPreviewSurface"
                color3f inputs:diffuseColor = (0.93, 0.56, 0.62)
                float inputs:roughness = 0.55
                float inputs:metallic = 0.0
                token outputs:surface
            }
        }

        def Material "pad"
        {
            token outputs:surface.connect = </Pond/Materials/pad/pbr.outputs:surface>

            def Shader "pbr"
            {
                uniform token info:id = "UsdPreviewSurface"
                color3f inputs:diffuseColor = (0.2, 0.42, 0.24)
                float inputs:roughness = 0.6
                float inputs:metallic = 0.0
                token outputs:surface
            }
        }

        def Material "gold"
        {
            token outputs:surface.connect = </Pond/Materials/gold/pbr.outputs:surface>

            def Shader "pbr"
            {
                uniform token info:id = "UsdPreviewSurface"
                color3f inputs:diffuseColor = (0.85, 0.68, 0.28)
                float inputs:roughness = 0.35
                float inputs:metallic = 0.6
                token outputs:surface
            }
        }
    }
}